<?xml version="1.0" encoding="UTF-8" standalone="no"?>
<svg
   version="1.1"
   id="Layer_1"
   x="0px"
   y="0px"
   viewBox="0 0 198.125 550"
   enable-background="new 0 0 2560 1600"
   xml:space="preserve"
   sodipodi:docname="sharp_quarter_note.svg"
   width="198.125"
   height="550"
   inkscape:version="1.1.2 (0a00cf5339, 2022-02-04)"
   xmlns:inkscape="http://www.inkscape.org/namespaces/inkscape"
   xmlns:sodipodi="http://sodipodi.sourceforge.net/DTD/sodipodi-0.dtd"
   xmlns="http://www.w3.org/2000/svg"
   xmlns:svg="http://www.w3.org/2000/svg"
   xmlns:rdf="http://www.w3.org/1999/02/22-rdf-syntax-ns#"
   xmlns:cc="http://creativecommons.org/ns#"
   xmlns:dc="http://purl.org/dc/elements/1.1/"><metadata
   id="metadata29"><rdf:RDF><cc:Work
       rdf:about=""><dc:format>image/svg+xml</dc:format><dc:type
         rdf:resource="http://purl.org/dc/dcmitype/StillImage" /></cc:Work></rdf:RDF></metadata><defs
   id="defs27" /><sodipodi:namedview
   pagecolor="#ffffff"
   bordercolor="#666666"
   borderopacity="1"
   objecttolerance="10"
   gridtolerance="10"
   guidetolerance="10"
   inkscape:pageopacity="0"
   inkscape:pageshadow="2"
   inkscape:window-width="1916"
   inkscape:window-height="1041"
   id="namedview25"
   showgrid="false"
   inkscape:zoom="1.1437452"
   inkscape:cx="79.126015"
   inkscape:cy="254.4273"
   inkscape:window-x="1920"
   inkscape:window-y="18"
   inkscape:window-maximized="1"
   inkscape:current-layer="Layer_1"
   inkscape:document-rotation="0"
   inkscape:pagecheckerboard="0"
   width="140.23439px" />















<path
   id="path9152_1_"
   d="M 198.125,1.311 187.208,0 157.969,250.396 c -11.877,-12.606 -34.441,-16.741 -56.667,-8.688 -27.617999,9.918 -44.047999,34.603 -36.629999,55.1 7.337,20.456 35.710999,28.982 63.355999,19.038 21.659,-7.864 36.211,-24.74 37.981,-41.548 l 0.203,0.054 31.913,-273.041" /><path
   id="path9104_1_"
   d="m 34.645818,284.10933 -14.2452,-1.23694 2.9542,-16.25507 14.23836,1.23695 z m 24.71648,-14.36377 1.96964,-10.83145 -15.05572,-1.30897 3.96426,-21.81329 -6.59772,-1.19934 -4.0802,22.43004 -14.22522,-1.23694 3.93245,-21.65028 -6.60166,-1.19935 -4.04892,22.25784 -11.72662,-1.00191 -1.96938,10.81884 11.73294,1.0303 -2.9542,16.24875 -11.74004,-1.01452 -1.96175,10.82514 11.73267,1.0303 -3.83465,21.07743 6.5943,1.19934 3.94455,-21.69103 14.23941,1.23694 -3.80284,20.92389 6.59536,1.18673 3.91509,-21.54092 15.05257,1.31503 1.96964,-10.83777 -15.05256,-1.30266 2.95288,-16.25191 15.05572,1.29977"
   style="stroke-width:0.262899" /></svg>
